<?xml version="1.0" standalone="no"?>
<!DOCTYPE svg PUBLIC "-//W3C//DTD SVG 20010904//EN"
 "http://www.w3.org/TR/2001/REC-SVG-20010904/DTD/svg10.dtd">
<svg version="1.0" xmlns="http://www.w3.org/2000/svg"
 width="260.000000pt" height="260.000000pt" viewBox="0 0 260.000000 260.000000"
 preserveAspectRatio="xMidYMid meet">
<metadata>
Created by potrace 1.14, written by Peter Selinger 2001-2017
</metadata>
<g transform="translate(0.000000,260.000000) scale(0.100000,-0.100000)"
fill="#000000" stroke="none">
<path d="M1151 2109 c-28 -11 -141 -100 -141 -111 0 -14 108 -9 122 5 44 44
108 49 162 12 29 -20 49 -25 87 -24 27 1 48 5 47 9 -7 16 -105 94 -135 106
-37 16 -107 17 -142 3z"/>
<path d="M602 1868 l3 -73 108 -3 107 -3 0 -474 0 -475 -130 0 -130 0 0 -75 0
-75 785 0 785 0 0 265 0 265 -100 0 -100 0 -1 -142 c0 -158 -11 -206 -49 -225
-19 -9 -107 -13 -342 -13 l-318 0 0 475 0 474 143 3 142 3 3 73 3 72 -456 0
-456 0 3 -72z"/>
<path d="M1558 1868 c-9 -63 -1 -73 185 -230 100 -84 204 -173 231 -196 l49
-44 22 29 c18 22 21 31 12 42 -7 8 -113 100 -237 204 -124 105 -233 197 -242
205 -15 12 -17 11 -20 -10z"/>
<path d="M685 1730 c-3 -5 -104 -93 -224 -194 -239 -202 -259 -227 -246 -308
9 -52 34 -79 201 -219 l143 -120 56 3 56 3 -180 150 c-99 83 -185 162 -191
177 -7 15 -10 38 -6 51 3 15 91 97 233 218 126 106 231 198 235 204 4 5 8 18
8 28 0 13 -8 17 -39 17 -22 0 -43 -4 -46 -10z"/>
<path d="M2175 1492 c-15 -11 -155 -179 -155 -186 0 -3 28 -6 62 -6 69 0 64
-3 243 127 l99 73 -119 0 c-66 0 -125 -4 -130 -8z"/>
<path d="M2196 1267 c-13 -10 -17 -24 -14 -67 l3 -55 18 27 c21 30 35 108 20
108 -5 0 -17 -6 -27 -13z"/>
<path d="M1822 938 c-23 -18 -41 -36 -41 -40 -1 -5 14 -8 33 -8 37 0 66 28 66
62 0 26 -12 22 -58 -14z"/>
<path d="M890 608 c138 -123 215 -185 247 -202 43 -21 130 -21 170 1 37 21
271 215 272 226 1 10 -116 9 -121 -1 -8 -21 -190 -161 -215 -166 -45 -10 -77
7 -178 94 l-93 80 -58 0 -59 -1 35 -31z"/>
</g>
</svg>
